<svg width="337" height="53" viewBox="0 0 337 53" fill="none" xmlns="http://www.w3.org/2000/svg">
<g clip-path="url(#clip0_9_253)">
<path d="M3.12305 0.5H16.6309C22.2507 0.5 26.9056 2.2181 30.5957 5.6543C34.2858 9.09049 36.1309 13.8724 36.1309 20C36.1309 26.1784 34.2943 30.9772 30.6211 34.3965C26.9479 37.7988 22.2845 39.5 16.6309 39.5H3.12305V0.5ZM16.5801 32.6445C20.1178 32.6445 22.9616 31.612 25.1113 29.5469C27.2611 27.4818 28.3359 24.2995 28.3359 20C28.3359 15.599 27.2695 12.3828 25.1367 10.3516C23.0039 8.32031 20.1517 7.30469 16.5801 7.30469H10.918V32.6445H16.5801ZM66.0034 25.1543C66.0034 25.916 65.9527 26.7285 65.8511 27.5918H46.605C46.842 29.4707 47.5275 30.9434 48.6616 32.0098C49.7958 33.0592 51.2092 33.584 52.9019 33.584C55.881 33.584 57.9461 32.4668 59.0972 30.2324H65.648C65.1571 33.0085 63.7945 35.2936 61.5601 37.0879C59.3257 38.8652 56.3719 39.7539 52.6987 39.7539C48.5347 39.7539 45.1493 38.3997 42.5425 35.6914C39.9527 32.9661 38.6577 29.4707 38.6577 25.2051C38.6577 20.9056 39.8934 17.4017 42.3648 14.6934C44.853 11.985 48.3146 10.6309 52.7495 10.6309C56.8459 10.6309 60.079 11.9342 62.4487 14.541C64.8185 17.1478 66.0034 20.6855 66.0034 25.1543ZM52.648 16.877C49.4657 16.877 47.5021 18.5951 46.7573 22.0312H58.1577C57.5991 18.5951 55.7626 16.877 52.648 16.877ZM97.501 10.9102L86.126 39.5H78.3057L66.9815 10.9102H75.8174L82.2159 30.2324L88.6651 10.9102H97.501ZM125.088 25.1543C125.088 25.916 125.038 26.7285 124.936 27.5918H105.69C105.927 29.4707 106.613 30.9434 107.747 32.0098C108.881 33.0592 110.294 33.584 111.987 33.584C114.966 33.584 117.031 32.4668 118.182 30.2324H124.733C124.242 33.0085 122.879 35.2936 120.645 37.0879C118.411 38.8652 115.457 39.7539 111.784 39.7539C107.62 39.7539 104.234 38.3997 101.628 35.6914C99.0377 32.9661 97.7427 29.4707 97.7427 25.2051C97.7427 20.9056 98.9784 17.4017 101.45 14.6934C103.938 11.985 107.4 10.6309 111.835 10.6309C115.931 10.6309 119.164 11.9342 121.534 14.541C123.904 17.1478 125.088 20.6855 125.088 25.1543ZM111.733 16.877C108.551 16.877 106.587 18.5951 105.842 22.0312H117.243C116.684 18.5951 114.848 16.877 111.733 16.877ZM129.164 39.5V0.5H136.756V39.5H129.164ZM167.212 35.6406C164.42 38.4505 160.89 39.8555 156.625 39.8555C152.359 39.8555 148.83 38.4505 146.037 35.6406C143.244 32.8138 141.847 29.3184 141.847 25.1543C141.847 20.9902 143.244 17.4948 146.037 14.668C148.83 11.8411 152.359 10.4277 156.625 10.4277C160.89 10.4277 164.42 11.8411 167.212 14.668C170.005 17.4948 171.402 20.9902 171.402 25.1543C171.402 29.3184 170.005 32.8138 167.212 35.6406ZM156.625 32.6445C158.571 32.6445 160.162 31.9251 161.398 30.4863C162.651 29.0475 163.277 27.2702 163.277 25.1543C163.277 23.0384 162.651 21.2526 161.398 19.7969C160.162 18.3411 158.571 17.6133 156.625 17.6133C154.644 17.6133 153.036 18.3327 151.8 19.7715C150.582 21.2103 149.972 23.0046 149.972 25.1543C149.972 27.304 150.582 29.0898 151.8 30.5117C153.036 31.9336 154.644 32.6445 156.625 32.6445ZM190.636 10.6309C194.444 10.6309 197.584 12.002 200.056 14.7441C202.544 17.4863 203.788 20.9395 203.788 25.1035C203.788 29.2507 202.544 32.7292 200.056 35.5391C197.584 38.349 194.444 39.7539 190.636 39.7539C187.521 39.7539 184.94 38.7721 182.892 36.8086V53.4902L174.716 53.4395V10.9609H182.359L182.892 13.4492C184.788 11.5703 187.369 10.6309 190.636 10.6309ZM189.036 32.5938C190.983 32.5938 192.566 31.8828 193.784 30.4609C195.02 29.0391 195.638 27.2533 195.638 25.1035C195.638 22.9538 195.02 21.1595 193.784 19.7207C192.549 18.2819 190.966 17.5625 189.036 17.5625C187.648 17.5625 186.396 17.9857 185.278 18.832C184.178 19.6784 183.383 20.7786 182.892 22.1328V28.0488C183.383 29.403 184.178 30.5033 185.278 31.3496C186.396 32.179 187.648 32.5938 189.036 32.5938ZM241.608 10.5801C244.79 10.5801 247.245 11.4772 248.971 13.2715C250.715 15.0488 251.587 17.5879 251.587 20.8887V39.5H243.309V21.9297C243.309 19.1536 241.938 17.7656 239.196 17.7656C237.639 17.7656 236.284 18.1973 235.133 19.0605C233.999 19.9238 233.432 21.0664 233.432 22.4883V39.5H225.104V21.9297C225.104 19.1536 223.758 17.7656 221.067 17.7656C219.51 17.7656 218.147 18.1973 216.979 19.0605C215.811 19.9238 215.227 21.0664 215.227 22.4883V39.5H206.975V10.9102H214.339L214.77 14.1855C215.735 13.0684 216.996 12.1882 218.553 11.5449C220.128 10.9017 221.744 10.5801 223.403 10.5801C226.975 10.5801 229.725 12.0527 231.655 14.998C232.772 13.6439 234.219 12.569 235.997 11.7734C237.791 10.9779 239.661 10.5801 241.608 10.5801ZM281.637 25.1543C281.637 25.916 281.586 26.7285 281.485 27.5918H262.238C262.475 29.4707 263.161 30.9434 264.295 32.0098C265.429 33.0592 266.843 33.584 268.535 33.584C271.514 33.584 273.58 32.4668 274.731 30.2324H281.281C280.791 33.0085 279.428 35.2936 277.194 37.0879C274.959 38.8652 272.005 39.7539 268.332 39.7539C264.168 39.7539 260.783 38.3997 258.176 35.6914C255.586 32.9661 254.291 29.4707 254.291 25.2051C254.291 20.9056 255.527 17.4017 257.998 14.6934C260.486 11.985 263.948 10.6309 268.383 10.6309C272.479 10.6309 275.712 11.9342 278.082 14.541C280.452 17.1478 281.637 20.6855 281.637 25.1543ZM268.281 16.877C265.099 16.877 263.136 18.5951 262.391 22.0312H273.791C273.233 18.5951 271.396 16.877 268.281 16.877ZM301.886 10.5293C305.221 10.5293 307.811 11.4434 309.656 13.2715C311.518 15.0827 312.449 17.6556 312.449 20.9902V39.5H304.172V21.9805C304.172 19.1367 302.597 17.7148 299.449 17.7148C297.756 17.7148 296.275 18.1465 295.006 19.0098C293.736 19.873 293.101 21.0156 293.101 22.4375V39.5H284.824V10.9102H292.263L292.746 14.3887C293.778 13.2038 295.124 12.2643 296.783 11.5703C298.459 10.8763 300.16 10.5293 301.886 10.5293ZM331.505 39.5508C329.982 39.5508 328.737 39.5169 327.773 39.4492C326.825 39.3815 325.775 39.1699 324.624 38.8145C323.49 38.4421 322.601 37.9173 321.958 37.2402C321.315 36.5632 320.765 35.6068 320.308 34.3711C319.868 33.1185 319.648 31.5866 319.648 29.7754V17.3086H314.798V10.8086H319.648V0.5H327.239V10.8086H334.984V17.3086H327.239V29.2676C327.239 30.7233 327.603 31.722 328.331 32.2637C329.059 32.7884 330.117 33.0508 331.505 33.0508H335.085V39.5508H331.505Z" fill="#171717"/>
</g>
<defs>
<clipPath id="clip0_9_253">
<rect width="337" height="53" fill="white"/>
</clipPath>
</defs>
</svg>
