<svg width="337" height="53" viewBox="0 0 337 53" fill="none" xmlns="http://www.w3.org/2000/svg">
<g clip-path="url(#clip0_9_248)">
<path d="M30.5195 40.7246C27.4388 43.2467 23.6641 44.5078 19.1953 44.5078C14.7266 44.5078 10.9434 43.2467 7.8457 40.7246C4.76497 38.1855 3.22461 35.0794 3.22461 31.4062V5H11.0703V30.0098C11.0703 32.1257 11.8574 33.9284 13.4316 35.418C15.0228 36.9076 16.944 37.6523 19.1953 37.6523C21.4466 37.6523 23.3594 36.9076 24.9336 35.418C26.5078 33.9284 27.2949 32.1257 27.2949 30.0098V5H35.1406V31.4062C35.1406 35.0794 33.6003 38.1855 30.5195 40.7246ZM40.9937 5H48.8394V44H40.9937V5ZM79.7154 44.3047C76.313 44.3047 73.3847 43.179 70.9302 40.9277C68.4927 38.6764 67.274 35.9766 67.274 32.8281C67.274 28.6302 69.0259 25.2109 72.5298 22.5703C70.6171 20.1836 69.6692 17.8138 69.6861 15.4609C69.6861 12.3125 70.5832 9.81576 72.3775 7.9707C74.1887 6.12565 76.6347 5.22005 79.7154 5.25391C82.3222 5.28776 84.5227 6.23568 86.317 8.09766C88.1112 9.94271 89.0084 12.2025 89.0084 14.877C89.0084 18.5501 87.1887 21.5885 83.5494 23.9922L89.0084 29.4004L92.8677 22.1133H100.663L94.0611 34.3262L102.948 43.9492H93.3755L89.6939 40.0898C86.8163 42.8997 83.4901 44.3047 79.7154 44.3047ZM78.9283 19.1934C81.2134 18.0423 82.356 16.5866 82.356 14.8262C82.356 13.8613 82.0852 13.0742 81.5435 12.4648C81.0188 11.8555 80.3586 11.5508 79.563 11.5508C77.4472 11.5508 76.3892 12.8542 76.3892 15.4609C76.3892 16.4935 77.2356 17.7376 78.9283 19.1934ZM79.817 37.4492C81.7636 37.4492 83.5155 36.6706 85.0728 35.1133L77.0494 27.3184C75.0012 28.6725 73.9856 30.416 74.0025 32.5488C74.0025 34.0384 74.5188 35.2318 75.5513 36.1289C76.6008 37.0091 78.0227 37.4492 79.817 37.4492ZM142.33 40.7246C139.249 43.2467 135.474 44.5078 131.005 44.5078C126.537 44.5078 122.754 43.2467 119.656 40.7246C116.575 38.1855 115.035 35.0794 115.035 31.4062V5H122.88V30.0098C122.88 32.1257 123.668 33.9284 125.242 35.418C126.833 36.9076 128.754 37.6523 131.005 37.6523C133.257 37.6523 135.17 36.9076 136.744 35.418C138.318 33.9284 139.105 32.1257 139.105 30.0098V5H146.951V31.4062C146.951 35.0794 145.41 38.1855 142.33 40.7246ZM176.138 44L167.403 30.3652L158.669 44H149.732L163.189 23.9922L150.468 5H159.355L167.403 17.543L175.528 5H184.415L171.618 23.916L185.101 44H176.138Z" fill="#171717"/>
</g>
<defs>
<clipPath id="clip0_9_248">
<rect width="337" height="53" fill="white"/>
</clipPath>
</defs>
</svg>
