<svg width="337" height="66" viewBox="0 0 337 66" fill="none" xmlns="http://www.w3.org/2000/svg">
<g clip-path="url(#clip0_9_258)">
<path d="M25.8984 27.8652C28.1497 28.5592 29.9271 29.7103 31.2305 31.3184C32.5339 32.9095 33.1855 34.9323 33.1855 37.3867C33.1855 40.6536 32.1022 43.2435 29.9355 45.1562C27.7689 47.0521 25.0352 48 21.7344 48H3.12305V9H19.2461C22.5807 9 25.3314 9.97331 27.498 11.9199C29.6816 13.8496 30.7734 16.4648 30.7734 19.7656C30.7904 23.2865 29.1654 25.9863 25.8984 27.8652ZM22.9785 20.5527C22.9785 19.2663 22.5215 18.1576 21.6074 17.2266C20.6934 16.2786 19.5931 15.8047 18.3066 15.8047H10.918V24.8184H18.3066C19.627 24.8184 20.7357 24.4206 21.6328 23.625C22.5299 22.8294 22.9785 21.8053 22.9785 20.5527ZM20.5918 41.1445C21.9121 41.1445 23.0293 40.679 23.9434 39.748C24.8574 38.8001 25.3145 37.6829 25.3145 36.3965C25.3145 35.0762 24.849 33.8743 23.918 32.791C22.987 31.6908 21.8783 31.1406 20.5918 31.1406H10.918V41.1445H20.5918ZM36.8804 48V9H44.4722V48H36.8804ZM74.9287 44.1406C72.1358 46.9505 68.6065 48.3555 64.3409 48.3555C60.0752 48.3555 56.5459 46.9505 53.753 44.1406C50.96 41.3138 49.5635 37.8184 49.5635 33.6543C49.5635 29.4902 50.96 25.9948 53.753 23.168C56.5459 20.3411 60.0752 18.9277 64.3409 18.9277C68.6065 18.9277 72.1358 20.3411 74.9287 23.168C77.7217 25.9948 79.1182 29.4902 79.1182 33.6543C79.1182 37.8184 77.7217 41.3138 74.9287 44.1406ZM64.3409 41.1445C66.2875 41.1445 67.8786 40.4251 69.1143 38.9863C70.3669 37.5475 70.9932 35.7702 70.9932 33.6543C70.9932 31.5384 70.3669 29.7526 69.1143 28.2969C67.8786 26.8411 66.2875 26.1133 64.3409 26.1133C62.3604 26.1133 60.7523 26.8327 59.5166 28.2715C58.2979 29.7103 57.6885 31.5046 57.6885 33.6543C57.6885 35.804 58.2979 37.5898 59.5166 39.0117C60.7523 40.4336 62.3604 41.1445 64.3409 41.1445ZM94.772 48.2539C90.608 48.2539 87.2564 46.9082 84.7173 44.2168C82.1952 41.5085 80.9341 37.9876 80.9341 33.6543C80.9341 29.321 82.1867 25.8171 84.692 23.1426C87.2141 20.4681 90.5741 19.1309 94.772 19.1309C96.8879 19.1309 98.7753 19.4017 100.434 19.9434C102.093 20.485 103.422 21.1536 104.42 21.9492C105.436 22.7448 106.291 23.7012 106.985 24.8184C107.679 25.9186 108.161 26.9512 108.432 27.916C108.72 28.8639 108.915 29.8372 109.016 30.8359H101.78C101.611 29.4818 100.933 28.3138 99.7486 27.332C98.5806 26.3503 97.1588 25.8594 95.483 25.8594C93.4009 25.8594 91.8098 26.5703 90.7095 27.9922C89.6262 29.3971 89.0845 31.2845 89.0845 33.6543C89.0845 35.9733 89.6262 37.8522 90.7095 39.291C91.8098 40.7298 93.4009 41.4492 95.483 41.4492C97.108 41.4492 98.5129 40.9245 99.6978 39.875C100.883 38.8086 101.577 37.6152 101.78 36.2949H109.016C108.915 37.3613 108.72 38.3939 108.432 39.3926C108.161 40.3743 107.679 41.4238 106.985 42.541C106.291 43.6413 105.436 44.6061 104.42 45.4355C103.422 46.248 102.093 46.9251 100.434 47.4668C98.7753 47.9915 96.8879 48.2539 94.772 48.2539ZM112.025 48V9H120.303V29.4902L128.199 19.4102H136.477L125.863 32.4102L137.568 48H129.088L120.303 36.041V48H112.025ZM152.689 48.2539C148.525 48.2539 145.173 46.9082 142.634 44.2168C140.112 41.5085 138.851 37.9876 138.851 33.6543C138.851 29.321 140.104 25.8171 142.609 23.1426C145.131 20.4681 148.491 19.1309 152.689 19.1309C154.805 19.1309 156.692 19.4017 158.351 19.9434C160.01 20.485 161.339 21.1536 162.337 21.9492C163.353 22.7448 164.208 23.7012 164.902 24.8184C165.596 25.9186 166.078 26.9512 166.349 27.916C166.637 28.8639 166.832 29.8372 166.933 30.8359H159.697C159.528 29.4818 158.851 28.3138 157.666 27.332C156.498 26.3503 155.076 25.8594 153.4 25.8594C151.318 25.8594 149.727 26.5703 148.627 27.9922C147.543 29.3971 147.002 31.2845 147.002 33.6543C147.002 35.9733 147.543 37.8522 148.627 39.291C149.727 40.7298 151.318 41.4492 153.4 41.4492C155.025 41.4492 156.43 40.9245 157.615 39.875C158.8 38.8086 159.494 37.6152 159.697 36.2949H166.933C166.832 37.3613 166.637 38.3939 166.349 39.3926C166.078 40.3743 165.596 41.4238 164.902 42.541C164.208 43.6413 163.353 44.6061 162.337 45.4355C161.339 46.248 160.01 46.9251 158.351 47.4668C156.692 47.9915 154.805 48.2539 152.689 48.2539ZM187.386 19.1816C190.72 19.1816 193.31 20.0872 195.155 21.8984C197 23.6927 197.923 26.2572 197.923 29.5918V48H189.671V30.6328C189.671 27.7891 188.088 26.3672 184.923 26.3672C183.23 26.3672 181.749 26.7988 180.48 27.6621C179.21 28.5254 178.575 29.668 178.575 31.0898V48H170.323V9H178.575V22.6348C179.642 21.5684 180.97 20.7305 182.562 20.1211C184.153 19.4948 185.761 19.1816 187.386 19.1816ZM209.895 48.4062C207.085 48.4062 204.825 47.6615 203.116 46.1719C201.423 44.6823 200.577 42.5918 200.577 39.9004C200.577 37.3613 201.694 35.3047 203.928 33.7305C206.18 32.1562 208.964 31.2083 212.282 30.8867L217.893 30.3789V29.8965C217.893 28.3053 217.529 27.1628 216.801 26.4688C216.074 25.7747 214.982 25.4277 213.526 25.4277C210.124 25.4277 208.287 26.8835 208.016 29.7949H201.364C201.567 26.7142 202.667 24.1751 204.665 22.1777C206.662 20.1803 209.692 19.1816 213.755 19.1816C217.394 19.1816 220.238 20.0703 222.286 21.8477C224.351 23.6081 225.383 26.3079 225.383 29.9473V38.5293C225.383 40.8145 226.145 41.957 227.669 41.957V48C227.499 48 227.178 48.0085 226.704 48.0254C226.247 48.0423 225.883 48.0508 225.612 48.0508C225.578 48.0508 225.341 48.0508 224.901 48.0508C224.461 48.0508 224.19 48.0508 224.089 48.0508C223.987 48.0508 223.742 48.0423 223.352 48.0254C222.98 48.0085 222.726 47.9831 222.59 47.9492C222.455 47.9154 222.21 47.8646 221.854 47.7969C221.516 47.7292 221.262 47.653 221.092 47.5684C220.94 47.4668 220.72 47.3398 220.432 47.1875C220.161 47.0352 219.941 46.8659 219.772 46.6797C219.603 46.4935 219.417 46.2819 219.214 46.0449C219.027 45.791 218.867 45.5033 218.731 45.1816C217.936 46.1465 216.734 46.9251 215.126 47.5176C213.518 48.11 211.774 48.4062 209.895 48.4062ZM212.079 42.4902C213.992 42.4902 215.93 41.6439 217.893 39.9512V35.5078L214.008 36.041C210.437 36.5319 208.651 37.6576 208.651 39.418C208.651 40.349 208.973 41.0938 209.616 41.6523C210.259 42.2109 211.08 42.4902 212.079 42.4902ZM235.375 17.2773C234.258 17.2773 233.293 16.8796 232.481 16.084C231.685 15.2715 231.287 14.2982 231.287 13.1641C231.287 12.013 231.694 11.0312 232.506 10.2188C233.319 9.40625 234.275 9 235.375 9C236.526 9 237.508 9.40625 238.32 10.2188C239.133 11.0312 239.539 12.013 239.539 13.1641C239.539 14.2982 239.133 15.2715 238.32 16.084C237.508 16.8796 236.526 17.2773 235.375 17.2773ZM231.44 19.4102H239.539V48H231.44V19.4102ZM262.023 19.0293C265.358 19.0293 267.948 19.9434 269.793 21.7715C271.655 23.5827 272.586 26.1556 272.586 29.4902V48H264.308V30.4805C264.308 27.6367 262.734 26.2148 259.586 26.2148C257.893 26.2148 256.412 26.6465 255.142 27.5098C253.873 28.373 253.238 29.5156 253.238 30.9375V48H244.961V19.4102H252.4L252.883 22.8887C253.915 21.7038 255.261 20.7643 256.92 20.0703C258.595 19.3763 260.297 19.0293 262.023 19.0293Z" fill="#171717"/>
</g>
<defs>
<clipPath id="clip0_9_258">
<rect width="337" height="66" fill="white"/>
</clipPath>
</defs>
</svg>
